<svg xmlns="http://www.w3.org/2000/svg" style="display: none;">
    <symbol id="icon-dashboard" viewBox="0 0 24 24">
        <g id="SVGRepo_bgCarrier" stroke-width="0"></g>
        <g id="SVGRepo_tracerCarrier" stroke-linecap="round" stroke-linejoin="round"></g>
        <g id="SVGRepo_iconCarrier">
            <path
                d="M12.5 11.75C12.9142 11.75 13.25 11.4142 13.25 11C13.25 10.5858 12.9142 10.25 12.5 10.25V11.75ZM5.5 10.25C5.08579 10.25 4.75 10.5858 4.75 11C4.75 11.4142 5.08579 11.75 5.5 11.75V10.25ZM12.5 10.25C12.0858 10.25 11.75 10.5858 11.75 11C11.75 11.4142 12.0858 11.75 12.5 11.75V10.25ZM19.5 11.75C19.9142 11.75 20.25 11.4142 20.25 11C20.25 10.5858 19.9142 10.25 19.5 10.25V11.75ZM11.75 11C11.75 11.4142 12.0858 11.75 12.5 11.75C12.9142 11.75 13.25 11.4142 13.25 11H11.75ZM13.25 5C13.25 4.58579 12.9142 4.25 12.5 4.25C12.0858 4.25 11.75 4.58579 11.75 5H13.25ZM6.25 11C6.25 10.5858 5.91421 10.25 5.5 10.25C5.08579 10.25 4.75 10.5858 4.75 11H6.25ZM20.25 11C20.25 10.5858 19.9142 10.25 19.5 10.25C19.0858 10.25 18.75 10.5858 18.75 11H20.25ZM4.75 11C4.75 11.4142 5.08579 11.75 5.5 11.75C5.91421 11.75 6.25 11.4142 6.25 11H4.75ZM12.5 5.75C12.9142 5.75 13.25 5.41421 13.25 5C13.25 4.58579 12.9142 4.25 12.5 4.25V5.75ZM18.75 11C18.75 11.4142 19.0858 11.75 19.5 11.75C19.9142 11.75 20.25 11.4142 20.25 11H18.75ZM12.5 4.25C12.0858 4.25 11.75 4.58579 11.75 5C11.75 5.41421 12.0858 5.75 12.5 5.75V4.25ZM12.5 10.25H5.5V11.75H12.5V10.25ZM12.5 11.75H19.5V10.25H12.5V11.75ZM13.25 11V5H11.75V11H13.25ZM4.75 11V15H6.25V11H4.75ZM4.75 15C4.75 17.6234 6.87665 19.75 9.5 19.75V18.25C7.70507 18.25 6.25 16.7949 6.25 15H4.75ZM9.5 19.75H15.5V18.25H9.5V19.75ZM15.5 19.75C18.1234 19.75 20.25 17.6234 20.25 15H18.75C18.75 16.7949 17.2949 18.25 15.5 18.25V19.75ZM20.25 15V11H18.75V15H20.25ZM6.25 11V9H4.75V11H6.25ZM6.25 9C6.25 7.20507 7.70507 5.75 9.5 5.75V4.25C6.87665 4.25 4.75 6.37665 4.75 9H6.25ZM9.5 5.75H12.5V4.25H9.5V5.75ZM20.25 11V9H18.75V11H20.25ZM20.25 9C20.25 6.37665 18.1234 4.25 15.5 4.25V5.75C17.2949 5.75 18.75 7.20507 18.75 9H20.25ZM15.5 4.25H12.5V5.75H15.5V4.25Z"
                fill="#000000"></path>
        </g>
    </symbol>
    <symbol id="icon-products" viewBox="0 0 24 24"> xmlns:xlink="http://www.w3.org/1999/xlink"
        fill="#000000"> <g id="SVGRepo_bgCarrier" stroke-width="0"></g>
                <g id="SVGRepo_tracerCarrier"
            stroke-linecap="round" stroke-linejoin="round"></g>
                <g id="SVGRepo_iconCarrier">
            <title></title>
            <g fill="none" fill-rule="evenodd" id="页面-1" stroke="none" stroke-width="1">
                <g id="导航图标" transform="translate(-325.000000, -80.000000)">
                    <g id="编组" transform="translate(325.000000, 80.000000)">
                        <polygon fill="#FFFFFF" fill-opacity="0.01" fill-rule="nonzero" id="路径"
                            points="24 0 0 0 0 24 24 24"></polygon>
                        <polygon id="路径" points="22 7 12 2 2 7 2 17 12 22 22 17"
                            stroke="#212121" stroke-linejoin="round" stroke-width="1.5"></polygon>
                        <line id="路径" stroke="#212121" stroke-linecap="round"
                            stroke-linejoin="round" stroke-width="1.5" x1="2" x2="12" y1="7"
                            y2="12"></line>
                        <line id="路径" stroke="#212121" stroke-linecap="round"
                            stroke-linejoin="round" stroke-width="1.5" x1="12" x2="12" y1="22"
                            y2="12"></line>
                        <line id="路径" stroke="#212121" stroke-linecap="round"
                            stroke-linejoin="round" stroke-width="1.5" x1="22" x2="12" y1="7"
                            y2="12"></line>
                        <line id="路径" stroke="#212121" stroke-linecap="round"
                            stroke-linejoin="round" stroke-width="1.5" x1="17" x2="7" y1="4.5"
                            y2="9.5"></line>
                    </g>
                </g>
            </g>
        </g>
    </symbol>
    <symbol id="icon-schedule" viewBox="0 0 64 64" xmlns="http://www.w3.org/2000/svg"
        stroke-width="4" stroke="#000000" fill="none">
        <g id="SVGRepo_bgCarrier" stroke-width="0"></g>
        <g id="SVGRepo_tracerCarrier" stroke-linecap="round" stroke-linejoin="round"></g>
        <g id="SVGRepo_iconCarrier">
            <path
                d="M36.66,54.45H8.84A2.5,2.5,0,0,1,6.35,52V12.12A2.49,2.49,0,0,1,8.84,9.63H48.68a2.49,2.49,0,0,1,2.49,2.49v22.4"></path>
            <line x1="6.35" y1="20.63" x2="51.17" y2="20.63"></line>
            <line x1="16.46" y1="9.63" x2="16.46" y2="4.63"></line>
            <line x1="40.42" y1="9.63" x2="40.42" y2="4.63"></line>
            <circle cx="45.22" cy="45.44" r="12.43"></circle>
            <polyline points="45.22 36.7 45.22 45.82 49.57 49.16"></polyline>
        </g>
    </symbol>

    <symbol id="icon-tasks" viewBox="0 0 24 24">
        <g id="SVGRepo_bgCarrier" stroke-width="0"></g>
        <g id="SVGRepo_tracerCarrier" stroke-linecap="round" stroke-linejoin="round"></g>
        <g id="SVGRepo_iconCarrier">
            <g>
                <path
                    d="M7.93,8.24,5.26,5.58,4,6.85l3.94,3.94L16,2.7,14.74,1.43,13,3.17,11.2,5Zm3.27,4H2.8V3.8H11L12.75,2H1V14H13V7.13l-1.8,1.8Z"></path>
            </g>
        </g>
    </symbol>


    <symbol id="icon-reporting">
        <svg xmlns="http://www.w3.org/2000/svg" width="24" height="24" viewBox="0 0 24 24"
            fill="none" stroke="currentColor" stroke-width="2" stroke-linecap="round"
            stroke-linejoin="round" class="icon icon-tabler icons-tabler-outline icon-tabler-report">
            <path stroke="none" d="M0 0h24v24H0z" fill="none" />
            <path d="M8 5h-2a2 2 0 0 0 -2 2v12a2 2 0 0 0 2 2h5.697" />
            <path d="M18 14v4h4" />
            <path d="M18 11v-4a2 2 0 0 0 -2 -2h-2" />
            <path d="M8 3m0 2a2 2 0 0 1 2 -2h2a2 2 0 0 1 2 2v0a2 2 0 0 1 -2 2h-2a2 2 0 0 1 -2 -2z" />
            <path d="M18 18m-4 0a4 4 0 1 0 8 0a4 4 0 1 0 -8 0" />
            <path d="M8 11h4" />
            <path d="M8 15h3" />
        </svg>
    </symbol>

    <symbol id="icon-user">
<svg viewBox="0 0 24 24" fill="none" xmlns="http://www.w3.org/2000/svg"><g id="SVGRepo_bgCarrier" stroke-width="0"></g><g id="SVGRepo_tracerCarrier" stroke-linecap="round" stroke-linejoin="round"></g><g id="SVGRepo_iconCarrier"> <path d="M16 7C16 9.20914 14.2091 11 12 11C9.79086 11 8 9.20914 8 7C8 4.79086 9.79086 3 12 3C14.2091 3 16 4.79086 16 7Z" stroke="#000000" stroke-width="2" stroke-linecap="round" stroke-linejoin="round"></path> <path d="M12 14C8.13401 14 5 17.134 5 21H19C19 17.134 15.866 14 12 14Z" stroke="#000000" stroke-width="2" stroke-linecap="round" stroke-linejoin="round"></path> </g></svg>    </symbol>
  <symbol id="icon-messages">
  <svg viewBox="0 0 24 24" fill="none" xmlns="http://www.w3.org/2000/svg"><g id="SVGRepo_bgCarrier" stroke-width="0"></g><g id="SVGRepo_tracerCarrier" stroke-linecap="round" stroke-linejoin="round"></g><g id="SVGRepo_iconCarrier"> <path d="M18 14H18.8C19.2203 14 19.6364 13.9173 20.0246 13.7565C20.4128 13.5957 20.7656 13.3599 21.0627 13.0627C21.3599 12.7656 21.5957 12.4129 21.7565 12.0247C21.9173 11.6364 22 11.2203 22 10.8V5.20007C22 4.77984 21.9173 4.36371 21.7565 3.97546C21.5957 3.58722 21.3599 3.2344 21.0627 2.93726C20.7656 2.64011 20.4128 2.40447 20.0246 2.24365C19.6364 2.08284 19.2203 2 18.8 2H9.20001C8.77978 2 8.36371 2.08284 7.97546 2.24365C7.58722 2.40447 7.23446 2.64011 6.93732 2.93726C6.64017 3.2344 6.40441 3.58722 6.24359 3.97546C6.08278 4.36371 6 4.77984 6 5.20007V7.6001" stroke="#000000" stroke-width="1.5" stroke-linecap="round" stroke-linejoin="round"></path> <path d="M6.80005 19.6001L8.63 21.4401C9.00092 21.7888 9.49088 21.9829 10 21.9829C10.5091 21.9829 10.9991 21.7888 11.3701 21.4401L13.2 19.6001H14.8C15.6487 19.6001 16.4626 19.263 17.0627 18.6628C17.6629 18.0627 18 17.2487 18 16.4V10.8C18 9.95136 17.6629 9.13747 17.0627 8.53735C16.4626 7.93724 15.6487 7.6001 14.8 7.6001H5.20001C4.35132 7.6001 3.53743 7.93724 2.93732 8.53735C2.3372 9.13747 2 9.95136 2 10.8V16.4C2 17.2487 2.3372 18.0627 2.93732 18.6628C3.53743 19.263 4.35132 19.6001 5.20001 19.6001H6.80005Z" stroke="#000000" stroke-width="1.5" stroke-linecap="round" stroke-linejoin="round"></path> </g></svg>
    </symbol>
  <symbol id="icon-document">
  <svg viewBox="0 0 24 24" fill="none" xmlns="http://www.w3.org/2000/svg"><g id="SVGRepo_bgCarrier" stroke-width="0"></g><g id="SVGRepo_tracerCarrier" stroke-linecap="round" stroke-linejoin="round"></g><g id="SVGRepo_iconCarrier"> <path fill-rule="evenodd" clip-rule="evenodd" d="M9.29289 1.29289C9.48043 1.10536 9.73478 1 10 1H18C19.6569 1 21 2.34315 21 4V20C21 21.6569 19.6569 23 18 23H6C4.34315 23 3 21.6569 3 20V8C3 7.73478 3.10536 7.48043 3.29289 7.29289L9.29289 1.29289ZM18 3H11V8C11 8.55228 10.5523 9 10 9H5V20C5 20.5523 5.44772 21 6 21H18C18.5523 21 19 20.5523 19 20V4C19 3.44772 18.5523 3 18 3ZM6.41421 7H9V4.41421L6.41421 7ZM7 13C7 12.4477 7.44772 12 8 12H16C16.5523 12 17 12.4477 17 13C17 13.5523 16.5523 14 16 14H8C7.44772 14 7 13.5523 7 13ZM7 17C7 16.4477 7.44772 16 8 16H16C16.5523 16 17 16.4477 17 17C17 17.5523 16.5523 18 16 18H8C7.44772 18 7 17.5523 7 17Z" fill="#000000"></path> </g></svg>
    </symbol>
      <symbol id="icon-notification">
      <svg viewBox="-1.5 0 20 20" version="1.1" xmlns="http://www.w3.org/2000/svg" xmlns:xlink="http://www.w3.org/1999/xlink" fill="#000000"><g id="SVGRepo_bgCarrier" stroke-width="0"></g><g id="SVGRepo_tracerCarrier" stroke-linecap="round" stroke-linejoin="round"></g><g id="SVGRepo_iconCarrier"> <title>notification_bell [#1397]</title> <desc>Created with Sketch.</desc> <defs> </defs> <g id="Page-1" stroke="none" stroke-width="1" fill="none" fill-rule="evenodd"> <g id="Dribbble-Light-Preview" transform="translate(-181.000000, -720.000000)" fill="#000000"> <g id="icons" transform="translate(56.000000, 160.000000)"> <path d="M137.75,574 L129.25,574 L129.25,568 C129.25,565.334 131.375,564 133.498937,564 L133.501063,564 C135.625,564 137.75,565.334 137.75,568 L137.75,574 Z M134.5625,577 C134.5625,577.552 134.0865,578 133.5,578 C132.9135,578 132.4375,577.552 132.4375,577 L132.4375,576 L134.5625,576 L134.5625,577 Z M140.9375,574 C140.351,574 139.875,573.552 139.875,573 L139.875,568 C139.875,564.447 137.359,562.475 134.5625,562.079 L134.5625,561 C134.5625,560.448 134.0865,560 133.5,560 C132.9135,560 132.4375,560.448 132.4375,561 L132.4375,562.079 C129.641,562.475 127.125,564.447 127.125,568 L127.125,573 C127.125,573.552 126.649,574 126.0625,574 C125.476,574 125,574.448 125,575 C125,575.552 125.476,576 126.0625,576 L130.3125,576 L130.3125,577 C130.3125,578.657 131.739438,580 133.5,580 C135.260563,580 136.6875,578.657 136.6875,577 L136.6875,576 L140.9375,576 C141.524,576 142,575.552 142,575 C142,574.448 141.524,574 140.9375,574 L140.9375,574 Z" id="notification_bell-[#1397]"> </path> </g> </g> </g> </g></svg>
    </symbol>

</svg>