<svg xmlns="http://www.w3.org/2000/svg" style="display: none;">
    <symbol id="icon-dashboard" viewBox="0 0 24 24">
            <g id="SVGRepo_bgCarrier" stroke-width="0"></g>
            <g id="SVGRepo_tracerCarrier" stroke-linecap="round" stroke-linejoin="round"></g>
            <g id="SVGRepo_iconCarrier">
                <path
                    d="M12.5 11.75C12.9142 11.75 13.25 11.4142 13.25 11C13.25 10.5858 12.9142 10.25 12.5 10.25V11.75ZM5.5 10.25C5.08579 10.25 4.75 10.5858 4.75 11C4.75 11.4142 5.08579 11.75 5.5 11.75V10.25ZM12.5 10.25C12.0858 10.25 11.75 10.5858 11.75 11C11.75 11.4142 12.0858 11.75 12.5 11.75V10.25ZM19.5 11.75C19.9142 11.75 20.25 11.4142 20.25 11C20.25 10.5858 19.9142 10.25 19.5 10.25V11.75ZM11.75 11C11.75 11.4142 12.0858 11.75 12.5 11.75C12.9142 11.75 13.25 11.4142 13.25 11H11.75ZM13.25 5C13.25 4.58579 12.9142 4.25 12.5 4.25C12.0858 4.25 11.75 4.58579 11.75 5H13.25ZM6.25 11C6.25 10.5858 5.91421 10.25 5.5 10.25C5.08579 10.25 4.75 10.5858 4.75 11H6.25ZM20.25 11C20.25 10.5858 19.9142 10.25 19.5 10.25C19.0858 10.25 18.75 10.5858 18.75 11H20.25ZM4.75 11C4.75 11.4142 5.08579 11.75 5.5 11.75C5.91421 11.75 6.25 11.4142 6.25 11H4.75ZM12.5 5.75C12.9142 5.75 13.25 5.41421 13.25 5C13.25 4.58579 12.9142 4.25 12.5 4.25V5.75ZM18.75 11C18.75 11.4142 19.0858 11.75 19.5 11.75C19.9142 11.75 20.25 11.4142 20.25 11H18.75ZM12.5 4.25C12.0858 4.25 11.75 4.58579 11.75 5C11.75 5.41421 12.0858 5.75 12.5 5.75V4.25ZM12.5 10.25H5.5V11.75H12.5V10.25ZM12.5 11.75H19.5V10.25H12.5V11.75ZM13.25 11V5H11.75V11H13.25ZM4.75 11V15H6.25V11H4.75ZM4.75 15C4.75 17.6234 6.87665 19.75 9.5 19.75V18.25C7.70507 18.25 6.25 16.7949 6.25 15H4.75ZM9.5 19.75H15.5V18.25H9.5V19.75ZM15.5 19.75C18.1234 19.75 20.25 17.6234 20.25 15H18.75C18.75 16.7949 17.2949 18.25 15.5 18.25V19.75ZM20.25 15V11H18.75V15H20.25ZM6.25 11V9H4.75V11H6.25ZM6.25 9C6.25 7.20507 7.70507 5.75 9.5 5.75V4.25C6.87665 4.25 4.75 6.37665 4.75 9H6.25ZM9.5 5.75H12.5V4.25H9.5V5.75ZM20.25 11V9H18.75V11H20.25ZM20.25 9C20.25 6.37665 18.1234 4.25 15.5 4.25V5.75C17.2949 5.75 18.75 7.20507 18.75 9H20.25ZM15.5 4.25H12.5V5.75H15.5V4.25Z"
                  
                    fill="#000000"></path>
            </g>
    </symbol>
    <symbol id="icon-products" viewBox="0 0 24 24">
            xmlns:xlink="http://www.w3.org/1999/xlink" fill="#000000">
            <g id="SVGRepo_bgCarrier" stroke-width="0"></g>
            <g id="SVGRepo_tracerCarrier" stroke-linecap="round" stroke-linejoin="round"></g>
            <g id="SVGRepo_iconCarrier">
                <title></title>
                <g fill="none" fill-rule="evenodd" id="页面-1" stroke="none" stroke-width="1">
                    <g id="导航图标" transform="translate(-325.000000, -80.000000)">
                        <g id="编组" transform="translate(325.000000, 80.000000)">
                            <polygon fill="#FFFFFF" fill-opacity="0.01" fill-rule="nonzero" id="路径"
                                points="24 0 0 0 0 24 24 24"></polygon>
                            <polygon id="路径" points="22 7 12 2 2 7 2 17 12 22 22 17"
                                stroke="#212121" stroke-linejoin="round" stroke-width="1.5"></polygon>
                            <line id="路径" stroke="#212121" stroke-linecap="round"
                                stroke-linejoin="round" stroke-width="1.5" x1="2" x2="12" y1="7"
                                y2="12"></line>
                            <line id="路径" stroke="#212121" stroke-linecap="round"
                                stroke-linejoin="round" stroke-width="1.5" x1="12" x2="12" y1="22"
                                y2="12"></line>
                            <line id="路径" stroke="#212121" stroke-linecap="round"
                                stroke-linejoin="round" stroke-width="1.5" x1="22" x2="12" y1="7"
                                y2="12"></line>
                            <line id="路径" stroke="#212121" stroke-linecap="round"
                                stroke-linejoin="round" stroke-width="1.5" x1="17" x2="7" y1="4.5"
                                y2="9.5"></line>
                        </g>
                    </g>
                </g>
            </g>
    </symbol>
    <symbol id="icon-schedule" viewBox="0 0 24 24">
            stroke="#000000" fill="none">
            <g id="SVGRepo_bgCarrier" stroke-width="0"></g>
            <g id="SVGRepo_tracerCarrier" stroke-linecap="round" stroke-linejoin="round"></g>
            <g id="SVGRepo_iconCarrier">
                <path
                    d="M36.66,54.45H8.84A2.5,2.5,0,0,1,6.35,52V12.12A2.49,2.49,0,0,1,8.84,9.63H48.68a2.49,2.49,0,0,1,2.49,2.49v22.4"></path>
                <line x1="6.35" y1="20.63" x2="51.17" y2="20.63"></line>
                <line x1="16.46" y1="9.63" x2="16.46" y2="4.63"></line>
                <line x1="40.42" y1="9.63" x2="40.42" y2="4.63"></line>
                <circle cx="45.22" cy="45.44" r="12.43"></circle>
                <polyline points="45.22 36.7 45.22 45.82 49.57 49.16"></polyline>
            </g>
    </symbol>
    <symbol id="icon-tasks" viewBox="0 0 24 24">
            <g id="SVGRepo_bgCarrier" stroke-width="0"></g>
            <g id="SVGRepo_tracerCarrier" stroke-linecap="round" stroke-linejoin="round"></g>
            <g id="SVGRepo_iconCarrier">
                <g>
                    <path
                        d="M7.93,8.24,5.26,5.58,4,6.85l3.94,3.94L16,2.7,14.74,1.43,13,3.17,11.2,5Zm3.27,4H2.8V3.8H11L12.75,2H1V14H13V7.13l-1.8,1.8Z"></path>
                </g>
            </g>
    </symbol>
    <symbol id="icon-reporting" viewBox="0 0 24 24">
            xmlns="http://www.w3.org/2000/svg">
            <g id="SVGRepo_bgCarrier" stroke-width="0"></g>
            <g id="SVGRepo_tracerCarrier" stroke-linecap="round" stroke-linejoin="round"></g>
            <g id="SVGRepo_iconCarrier">
                <title></title>
                <path
                    d="M40,47H8a2,2,0,0,1-2-2V3A2,2,0,0,1,8,1H40a2,2,0,0,1,2,2V45A2,2,0,0,1,40,47ZM10,43H38V5H10Z"></path>
                <path
                    d="M15,19a2,2,0,0,1-1.41-3.41l4-4a2,2,0,0,1,2.31-.37l2.83,1.42,5-4.16A2,2,0,0,1,30.2,8.4l4,3a2,2,0,1,1-2.4,3.2l-2.73-2.05-4.79,4a2,2,0,0,1-2.17.25L19.4,15.43l-3,3A2,2,0,0,1,15,19Z"></path>
                <circle cx="15" cy="24" r="2"></circle>
                <circle cx="15" cy="31" r="2"></circle>
                <circle cx="15" cy="38" r="2"></circle>
                <path d="M33,26H22a2,2,0,0,1,0-4H33a2,2,0,0,1,0,4Z"></path>
                <path d="M33,33H22a2,2,0,0,1,0-4H33a2,2,0,0,1,0,4Z"></path>
                <path d="M33,40H22a2,2,0,0,1,0-4H33a2,2,0,0,1,0,4Z"></path>
            </g>
    </symbol>
</svg>